<svg width="32" height="33" viewBox="0 0 32 33" fill="none" xmlns="http://www.w3.org/2000/svg">
<rect y="0.5" width="32" height="32" rx="16" fill="#F2F3F5"/>
<path fill-rule="evenodd" clip-rule="evenodd" d="M11.4167 23.083H17.3334C19.1283 23.083 20.5834 21.6279 20.5834 19.833V9.91634H11.4167V23.083ZM12.5834 21.9163V11.083H19.4167V19.833C19.4167 20.9836 18.484 21.9163 17.3334 21.9163H12.5834Z" fill="#161F36"/>
<path fill-rule="evenodd" clip-rule="evenodd" d="M13.75 14.1663C13.75 13.8442 14.0112 13.583 14.3333 13.583L17.6667 13.583C17.9888 13.583 18.25 13.8442 18.25 14.1663C18.25 14.4885 17.9888 14.7497 17.6667 14.7497L14.3333 14.7497C14.0112 14.7497 13.75 14.4885 13.75 14.1663Z" fill="#161F36"/>
<path fill-rule="evenodd" clip-rule="evenodd" d="M13.75 16.4998C13.75 16.1777 14.0112 15.9165 14.3333 15.9165H17.6667C17.9888 15.9165 18.25 16.1777 18.25 16.4998C18.25 16.822 17.9888 17.0832 17.6667 17.0832H14.3333C14.0112 17.0832 13.75 16.822 13.75 16.4998Z" fill="#161F36"/>
<path fill-rule="evenodd" clip-rule="evenodd" d="M13.75 18.8333C13.75 18.5112 14.0112 18.25 14.3333 18.25H16.3333C16.6555 18.25 16.9167 18.5112 16.9167 18.8333C16.9167 19.1555 16.6555 19.4167 16.3333 19.4167H14.3333C14.0112 19.4167 13.75 19.1555 13.75 18.8333Z" fill="#161F36"/>
</svg>
