<svg width="24" height="24" viewBox="0 0 24 24" fill="none" xmlns="http://www.w3.org/2000/svg">
<path fill-rule="evenodd" clip-rule="evenodd" d="M5.38128 5.38128C5.72299 5.03957 6.27701 5.03957 6.61872 5.38128L18.6187 17.3813C18.9604 17.723 18.9604 18.277 18.6187 18.6187C18.277 18.9604 17.723 18.9604 17.3813 18.6187L5.38128 6.61872C5.03957 6.27701 5.03957 5.72299 5.38128 5.38128Z" fill="#161F36"/>
<path fill-rule="evenodd" clip-rule="evenodd" d="M12 10.7627L5.38127 17.3814C5.03956 17.7231 5.03956 18.2771 5.38127 18.6189C5.72298 18.9606 6.277 18.9606 6.61871 18.6189L13.2374 12.0001L12 10.7627Z" fill="#161F36"/>
<path fill-rule="evenodd" clip-rule="evenodd" d="M18.6187 5.38128C18.277 5.03957 17.723 5.03957 17.3813 5.38128L13.2626 9.5L14.5 10.7374L18.6187 6.61872C18.9604 6.27701 18.9604 5.72299 18.6187 5.38128Z" fill="#161F36"/>
</svg>
