<svg width="24" height="24" viewBox="0 0 24 24" fill="none" xmlns="http://www.w3.org/2000/svg">
<path fill-rule="evenodd" clip-rule="evenodd" d="M6 6.875C5.37867 6.875 4.87499 7.37869 4.875 8.00002L4.87517 17.25C4.87518 17.7333 5.26693 18.125 5.75017 18.125H18.25C18.7332 18.125 19.125 17.7332 19.125 17.25V7.5C19.125 7.15482 18.8451 6.875 18.5 6.875H6ZM3.125 8.00005C3.12497 6.41221 4.41216 5.125 6 5.125H18.5C19.8116 5.125 20.875 6.18832 20.875 7.5V17.25C20.875 18.6997 19.6997 19.875 18.25 19.875H5.75017C4.30045 19.875 3.1252 18.6998 3.12517 17.25L3.125 8.00005Z" fill="#161F36"/>
<path fill-rule="evenodd" clip-rule="evenodd" d="M6.84603 8.91869C7.16708 8.55751 7.72014 8.52497 8.08133 8.84603L11.6844 12.0488C11.8644 12.2088 12.1356 12.2088 12.3156 12.0488L15.9187 8.84603C16.2799 8.52497 16.8329 8.55751 17.154 8.91869C17.475 9.27988 17.4425 9.83294 17.0813 10.154L13.4782 13.3568C12.6352 14.1061 11.3648 14.1061 10.5218 13.3568L6.91869 10.154C6.55751 9.83294 6.52497 9.27988 6.84603 8.91869Z" fill="#161F36"/>
</svg>
