<svg width="25" height="24" viewBox="0 0 25 24" fill="none" xmlns="http://www.w3.org/2000/svg">
<path id="Vector" d="M12.5029 0C5.87293 0 0.502931 5.50596 0.502931 12.3038C0.50157 14.8867 1.29351 17.4045 2.76639 19.4999C4.23927 21.5954 6.31831 23.162 8.70853 23.9777C9.30853 24.0847 9.53293 23.7156 9.53293 23.392C9.53293 23.1004 9.51733 22.1321 9.51733 21.1011C6.50293 21.6707 5.72293 20.3481 5.48293 19.6554C5.34733 19.301 4.76293 18.2097 4.25293 17.9168C3.83293 17.6868 3.23293 17.1171 4.23733 17.1023C5.18293 17.0863 5.85733 17.9943 6.08293 18.3635C7.16293 20.2238 8.88853 19.7009 9.57733 19.3785C9.68293 18.5788 9.99733 18.0411 10.3429 17.7335C7.67293 17.4259 4.88293 16.3641 4.88293 11.6579C4.88293 10.3192 5.34733 9.21311 6.11293 8.35061C5.99293 8.04301 5.57293 6.78187 6.23293 5.09009C6.23293 5.09009 7.23733 4.76773 9.53293 6.35247C10.5098 6.07447 11.5191 5.93456 12.5329 5.9366C13.5529 5.9366 14.5729 6.0744 15.5329 6.35124C17.8273 4.75174 18.8329 5.09132 18.8329 5.09132C19.4929 6.7831 19.0729 8.04424 18.9529 8.35184C19.7173 9.21311 20.1829 10.3045 20.1829 11.6579C20.1829 16.3801 17.3785 17.4259 14.7085 17.7335C15.1429 18.1174 15.5185 18.8556 15.5185 20.0097C15.5185 21.6547 15.5029 22.9774 15.5029 23.3933C15.5029 23.7156 15.7285 24.0995 16.3285 23.9765C18.7106 23.1519 20.7804 21.5821 22.2468 19.4882C23.7132 17.3943 24.5022 14.8816 24.5029 12.3038C24.5029 5.50596 19.1329 0 12.5029 0Z" fill="#676B75"/>
</svg>
