<svg width="20" height="20" viewBox="0 0 20 20" fill="none" xmlns="http://www.w3.org/2000/svg">
<path fill-rule="evenodd" clip-rule="evenodd" d="M9.99967 19.1668C15.0623 19.1668 19.1663 15.0628 19.1663 10.0002C19.1663 4.93755 15.0623 0.833496 9.99967 0.833496C4.93706 0.833496 0.833008 4.93755 0.833008 10.0002C0.833008 15.0628 4.93706 19.1668 9.99967 19.1668ZM14.368 7.05329C14.5814 6.71179 14.4776 6.26193 14.1361 6.0485C13.7946 5.83506 13.3448 5.93888 13.1313 6.28037L9.36267 12.3103L6.23748 10.2268C5.9024 10.0034 5.44969 10.094 5.2263 10.429C5.00292 10.7641 5.09347 11.2168 5.42854 11.4402L9.17854 13.9402L9.80335 14.3567L10.2013 13.72L14.368 7.05329Z" fill="#209D7F"/>
</svg>
