<svg width="24" height="24" viewBox="0 0 24 24" fill="none" xmlns="http://www.w3.org/2000/svg">
<path fill-rule="evenodd" clip-rule="evenodd" d="M12 1.10254L20.875 3.11958V9.64198C20.875 13.4132 19.2216 16.9948 16.3514 19.441L12 23.1495L7.64861 19.441C4.77841 16.9948 3.125 13.4132 3.125 9.64198V3.11958L12 1.10254ZM4.875 4.51648V9.64198C4.875 12.9006 6.30367 15.9954 8.78375 18.1091L12 20.8502L15.2163 18.1091C17.6963 15.9954 19.125 12.9006 19.125 9.64198V4.51648L12 2.89717L4.875 4.51648Z" fill="#161F36"/>
<path fill-rule="evenodd" clip-rule="evenodd" d="M12 6.375C11.3787 6.375 10.875 6.87868 10.875 7.5C10.875 8.12132 11.3787 8.625 12 8.625C12.6213 8.625 13.125 8.12132 13.125 7.5C13.125 6.87868 12.6213 6.375 12 6.375ZM9.125 7.5C9.125 5.91218 10.4122 4.625 12 4.625C13.5878 4.625 14.875 5.91218 14.875 7.5C14.875 9.08782 13.5878 10.375 12 10.375C10.4122 10.375 9.125 9.08782 9.125 7.5Z" fill="#161F36"/>
<path fill-rule="evenodd" clip-rule="evenodd" d="M7.9098 12.9512C8.17248 11.6003 9.3557 10.625 10.7319 10.625H13.2681C14.6444 10.625 15.8276 11.6003 16.0903 12.9512L16.359 14.333C16.4512 14.8074 16.1414 15.2667 15.6671 15.3589C15.1927 15.4512 14.7334 15.1414 14.6411 14.667L14.3725 13.2853C14.2697 12.7566 13.8067 12.375 13.2681 12.375H10.7319C10.1934 12.375 9.73042 12.7566 9.62763 13.2853L9.35896 14.667C9.26672 15.1414 8.8074 15.4512 8.33303 15.3589C7.85867 15.2667 7.54889 14.8074 7.64113 14.333L7.9098 12.9512Z" fill="#161F36"/>
</svg>
