<svg width="25" height="24" viewBox="0 0 25 24" fill="none" xmlns="http://www.w3.org/2000/svg">
<path id="Vector" d="M13.4499 10.6153H13.4683V10.5864L13.4499 10.6153ZM13.4499 10.6153H13.4683V10.5864L13.4499 10.6153ZM13.4499 10.6153H13.4683V10.5864L13.4499 10.6153ZM13.4499 10.6153H13.4683V10.5864L13.4499 10.6153ZM13.4499 10.6153H13.4683V10.5864L13.4499 10.6153ZM13.4499 10.6153H13.4683V10.5864L13.4499 10.6153ZM13.4499 10.6153H13.4683V10.5864L13.4499 10.6153ZM13.4499 10.6153H13.4683V10.5864L13.4499 10.6153ZM13.4499 10.6153H13.4683V10.5864L13.4499 10.6153ZM13.4499 10.6153H13.4683V10.5864L13.4499 10.6153ZM13.4499 10.6153H13.4683V10.5864L13.4499 10.6153ZM13.4499 10.6153H13.4683V10.5864L13.4499 10.6153ZM13.4499 10.6153H13.4683V10.5864L13.4499 10.6153ZM13.4499 10.6153H13.4683V10.5864L13.4499 10.6153ZM13.4499 10.6153H13.4683V10.5864L13.4499 10.6153ZM13.4499 10.6153H13.4683V10.5864L13.4499 10.6153ZM12.2544 0C9.88102 0 7.56095 0.703787 5.58756 2.02236C3.61417 3.34094 2.0761 5.21508 1.16785 7.4078C0.259594 9.60051 0.021954 12.0133 0.484977 14.3411C0.947999 16.6689 2.09089 18.807 3.76912 20.4853C5.44735 22.1635 7.58554 23.3064 9.91331 23.7694C12.2411 24.2324 14.6539 23.9948 16.8466 23.0865C19.0393 22.1783 20.9135 20.6402 22.232 18.6668C23.5506 16.6935 24.2544 14.3734 24.2544 12C24.2509 8.81847 22.9855 5.76824 20.7358 3.51856C18.4862 1.26888 15.4359 0.00347747 12.2544 0ZM9.25374 17.4022C9.25305 17.4554 9.23143 17.5062 9.19356 17.5436C9.15569 17.581 9.10463 17.6019 9.05142 17.6019H6.73918C6.68622 17.6019 6.63543 17.5809 6.59798 17.5434C6.56053 17.506 6.53949 17.4552 6.53949 17.4022V9.63258C6.53914 9.60614 6.54405 9.57989 6.55393 9.55535C6.56381 9.53082 6.57846 9.5085 6.59704 9.48967C6.61562 9.47085 6.63775 9.45591 6.66215 9.44571C6.68655 9.43551 6.71273 9.43026 6.73918 9.43026H9.05142C9.07799 9.43026 9.1043 9.43549 9.12885 9.44566C9.15339 9.45583 9.1757 9.47073 9.19448 9.48952C9.21327 9.5083 9.22817 9.53061 9.23834 9.55515C9.24851 9.5797 9.25374 9.60601 9.25374 9.63258V17.4022ZM7.81385 8.39238C7.52646 8.39238 7.24553 8.30716 7.00659 8.1475C6.76763 7.98784 6.5814 7.7609 6.47142 7.4954C6.36144 7.22989 6.33267 6.93773 6.38873 6.65587C6.4448 6.37401 6.58319 6.11511 6.7864 5.9119C6.98961 5.70869 7.24851 5.5703 7.53037 5.51423C7.81224 5.45817 8.10439 5.48694 8.3699 5.59692C8.6354 5.7069 8.86234 5.89313 9.022 6.13208C9.18166 6.37103 9.26688 6.65196 9.26688 6.93935C9.26723 7.13026 9.22988 7.31936 9.15698 7.49581C9.08408 7.67225 8.97706 7.83257 8.84207 7.96757C8.70707 8.10256 8.54675 8.20958 8.37031 8.28248C8.19386 8.35538 8.00476 8.39272 7.81385 8.39238ZM19.0387 17.4022C19.038 17.4554 19.0164 17.5062 18.9785 17.5436C18.9407 17.581 18.8896 17.6019 18.8364 17.6019H16.5242C16.4979 17.6019 16.472 17.5968 16.4477 17.5867C16.4235 17.5767 16.4015 17.562 16.383 17.5434C16.3644 17.5249 16.3497 17.5029 16.3397 17.4787C16.3296 17.4544 16.3245 17.4285 16.3245 17.4022V13.2271C16.3245 12.1287 15.933 11.3878 14.9503 11.3878C14.644 11.3895 14.3458 11.4859 14.0965 11.6637C13.8472 11.8415 13.659 12.092 13.5577 12.381C13.4884 12.5946 13.4581 12.8188 13.4683 13.0431V17.4022C13.4683 17.4559 13.447 17.5074 13.4091 17.5453C13.3711 17.5832 13.3197 17.6046 13.266 17.6046H10.9538C10.9273 17.6046 10.9011 17.5993 10.8767 17.5891C10.8523 17.5789 10.8302 17.564 10.8116 17.5451C10.793 17.5263 10.7784 17.504 10.7685 17.4795C10.7586 17.4549 10.7537 17.4287 10.7541 17.4022C10.7541 16.2934 10.783 10.9096 10.7541 9.64309C10.7537 9.61665 10.7586 9.5904 10.7685 9.56586C10.7784 9.54133 10.793 9.51901 10.8116 9.50018C10.8302 9.48136 10.8523 9.46642 10.8767 9.45622C10.9011 9.44602 10.9273 9.44077 10.9538 9.44077H13.2607C13.2874 9.44042 13.3139 9.44541 13.3386 9.45545C13.3633 9.46549 13.3857 9.48038 13.4046 9.49924C13.4235 9.5181 13.4383 9.54054 13.4484 9.56525C13.4584 9.58996 13.4634 9.61642 13.4631 9.64309V10.5969C13.7088 10.1702 14.0668 9.81905 14.498 9.58142C14.9293 9.3438 15.4173 9.22882 15.9093 9.24896C17.6934 9.24896 19.0335 10.4156 19.0335 12.9275L19.0387 17.4022ZM13.4683 10.6232V10.5943L13.4499 10.6232H13.4683ZM13.4499 10.6232H13.4683V10.5943L13.4499 10.6232ZM13.4499 10.6232H13.4683V10.5943L13.4499 10.6232ZM13.4499 10.6232H13.4683V10.5943L13.4499 10.6232ZM13.4499 10.6232H13.4683V10.5943L13.4499 10.6232ZM13.4499 10.6232H13.4683V10.5943L13.4499 10.6232ZM13.4499 10.6232H13.4683V10.5943L13.4499 10.6232ZM13.4499 10.6232H13.4683V10.5943L13.4499 10.6232ZM13.4499 10.6232H13.4683V10.5943L13.4499 10.6232ZM13.4499 10.6232H13.4683V10.5943L13.4499 10.6232ZM13.4499 10.6232H13.4683V10.5943L13.4499 10.6232ZM13.4499 10.6232H13.4683V10.5943L13.4499 10.6232ZM13.4499 10.6232H13.4683V10.5943L13.4499 10.6232ZM13.4499 10.6232H13.4683V10.5943L13.4499 10.6232ZM13.4499 10.6232H13.4683V10.5943L13.4499 10.6232Z" fill="#676B75"/>
</svg>
