<svg width="24" height="24" viewBox="0 0 24 24" fill="none" xmlns="http://www.w3.org/2000/svg">
<path fill-rule="evenodd" clip-rule="evenodd" d="M4.125 10C4.125 8.96447 4.96447 8.125 6 8.125H18C19.0355 8.125 19.875 8.96447 19.875 10V20C19.875 21.0355 19.0355 21.875 18 21.875H6C4.96447 21.875 4.125 21.0355 4.125 20V10ZM6 9.875C5.93096 9.875 5.875 9.93096 5.875 10V20C5.875 20.069 5.93096 20.125 6 20.125H18C18.069 20.125 18.125 20.069 18.125 20V10C18.125 9.93096 18.069 9.875 18 9.875H6Z" fill="black"/>
<path fill-rule="evenodd" clip-rule="evenodd" d="M7.125 7C7.125 4.30761 9.30761 2.125 12 2.125C14.6924 2.125 16.875 4.30761 16.875 7V9C16.875 9.48325 16.4832 9.875 16 9.875C15.5168 9.875 15.125 9.48325 15.125 9V7C15.125 5.27411 13.7259 3.875 12 3.875C10.2741 3.875 8.875 5.27411 8.875 7V9C8.875 9.48325 8.48325 9.875 8 9.875C7.51675 9.875 7.125 9.48325 7.125 9V7Z" fill="black"/>
<path d="M11 14C11 13.4477 11.4477 13 12 13C12.5523 13 13 13.4477 13 14V16C13 16.5523 12.5523 17 12 17C11.4477 17 11 16.5523 11 16V14Z" fill="black"/>
</svg>
