<svg width="24" height="24" viewBox="0 0 24 24" fill="none" xmlns="http://www.w3.org/2000/svg">
<path fill-rule="evenodd" clip-rule="evenodd" d="M2.125 12C2.125 6.54619 6.54619 2.125 12 2.125C17.4538 2.125 21.875 6.54619 21.875 12C21.875 17.4538 17.4538 21.875 12 21.875C6.54619 21.875 2.125 17.4538 2.125 12ZM12 3.875C7.51269 3.875 3.875 7.51269 3.875 12C3.875 16.4873 7.51269 20.125 12 20.125C16.4873 20.125 20.125 16.4873 20.125 12C20.125 7.51269 16.4873 3.875 12 3.875Z" fill="black"/>
<path fill-rule="evenodd" clip-rule="evenodd" d="M10.7088 5.91274C10.2029 7.43036 9.875 9.58259 9.875 12C9.875 14.4174 10.2029 16.5696 10.7088 18.0873C10.9632 18.8506 11.247 19.4053 11.5195 19.7511C11.7998 20.1068 11.9688 20.125 12 20.125C12.0312 20.125 12.2002 20.1068 12.4805 19.7511C12.753 19.4053 13.0368 18.8506 13.2912 18.0873C13.7971 16.5696 14.125 14.4174 14.125 12C14.125 9.58259 13.7971 7.43036 13.2912 5.91274C13.0368 5.14935 12.753 4.5947 12.4805 4.24887C12.2002 3.89317 12.0312 3.875 12 3.875C11.9688 3.875 11.7998 3.89317 11.5195 4.24887C11.247 4.5947 10.9632 5.14935 10.7088 5.91274ZM10.145 3.16566C10.5825 2.61051 11.2028 2.125 12 2.125C12.7972 2.125 13.4175 2.61051 13.855 3.16566C14.3003 3.73068 14.663 4.49404 14.9514 5.35934C15.5313 7.09908 15.875 9.44684 15.875 12C15.875 14.5532 15.5313 16.9009 14.9514 18.6407C14.663 19.506 14.3003 20.2693 13.855 20.8343C13.4175 21.3895 12.7972 21.875 12 21.875C11.2028 21.875 10.5825 21.3895 10.145 20.8343C9.69975 20.2693 9.33701 19.506 9.04858 18.6407C8.46867 16.9009 8.125 14.5532 8.125 12C8.125 9.44684 8.46867 7.09908 9.04858 5.35934C9.33701 4.49404 9.69975 3.73068 10.145 3.16566Z" fill="black"/>
<path fill-rule="evenodd" clip-rule="evenodd" d="M19 12.875L5.5 12.875C5.01675 12.875 4.625 12.4832 4.625 12C4.625 11.5168 5.01675 11.125 5.5 11.125L19 11.125C19.4832 11.125 19.875 11.5168 19.875 12C19.875 12.4832 19.4832 12.875 19 12.875Z" fill="black"/>
</svg>
