<svg width="24" height="24" viewBox="0 0 24 24" fill="none" xmlns="http://www.w3.org/2000/svg">
<path fill-rule="evenodd" clip-rule="evenodd" d="M12 3.875C7.51269 3.875 3.875 7.51269 3.875 12C3.875 16.4873 7.51269 20.125 12 20.125C16.4873 20.125 20.125 16.4873 20.125 12C20.125 7.51269 16.4873 3.875 12 3.875ZM2.125 12C2.125 6.54619 6.54619 2.125 12 2.125C17.4538 2.125 21.875 6.54619 21.875 12C21.875 17.4538 17.4538 21.875 12 21.875C6.54619 21.875 2.125 17.4538 2.125 12Z" fill="#95979C"/>
<path fill-rule="evenodd" clip-rule="evenodd" d="M9.125 10C9.125 8.41218 10.4122 7.125 12 7.125H12.1459C13.6637 7.125 14.875 8.37489 14.875 9.87148C14.875 10.8824 14.3057 11.8254 13.3913 12.2826C13.0749 12.4408 12.875 12.7643 12.875 13.118V13.5C12.875 13.9832 12.4832 14.375 12 14.375C11.5168 14.375 11.125 13.9832 11.125 13.5V13.118C11.125 12.1014 11.6994 11.172 12.6087 10.7174C12.92 10.5617 13.125 10.231 13.125 9.87148C13.125 9.32009 12.6761 8.875 12.1459 8.875H12C11.3787 8.875 10.875 9.37868 10.875 10C10.875 10.4832 10.4832 10.875 10 10.875C9.51675 10.875 9.125 10.4832 9.125 10Z" fill="#95979C"/>
<path d="M13.25 16.25C13.25 16.9404 12.6904 17.5 12 17.5C11.3096 17.5 10.75 16.9404 10.75 16.25C10.75 15.5596 11.3096 15 12 15C12.6904 15 13.25 15.5596 13.25 16.25Z" fill="#95979C"/>
</svg>
