<svg width="32" height="33" viewBox="0 0 32 33" fill="none" xmlns="http://www.w3.org/2000/svg">
<rect y="0.5" width="32" height="32" rx="16" fill="#D4F4C1"/>
<rect y="0.5" width="32" height="32" rx="16" fill="#ECE6F7"/>
<path fill-rule="evenodd" clip-rule="evenodd" d="M11.4167 11.8333C11.4167 11.5112 11.6779 11.25 12.0001 11.25H21.2501V20.5C21.2501 20.8222 20.9889 21.0833 20.6667 21.0833C20.3446 21.0833 20.0834 20.8222 20.0834 20.5V12.4167H12.0001C11.6779 12.4167 11.4167 12.1555 11.4167 11.8333Z" fill="#161F36"/>
<path fill-rule="evenodd" clip-rule="evenodd" d="M10.9209 20.7541L17.5875 14.0874L18.4125 14.9124L11.7458 21.579C11.518 21.8068 11.1487 21.8068 10.9209 21.579C10.693 21.3512 10.693 20.9819 10.9209 20.7541Z" fill="#161F36"/>
</svg>
