<svg width="25" height="24" viewBox="0 0 25 24" fill="none" xmlns="http://www.w3.org/2000/svg">
<path id="Vector" d="M12.7515 0C6.12747 0 0.751465 5.376 0.751465 12C0.751465 18.624 6.12747 24 12.7515 24C19.3755 24 24.7515 18.624 24.7515 12C24.7515 5.376 19.3755 0 12.7515 0ZM18.3195 8.16C18.1395 10.056 17.3595 14.664 16.9635 16.788C16.7955 17.688 16.4595 17.988 16.1475 18.024C15.4515 18.084 14.9235 17.568 14.2515 17.124C13.1955 16.428 12.5955 15.996 11.5755 15.324C10.3875 14.544 11.1555 14.112 11.8395 13.416C12.0195 13.236 15.0915 10.44 15.1515 10.188C15.1598 10.1498 15.1587 10.1102 15.1482 10.0726C15.1378 10.0349 15.1183 10.0004 15.0915 9.972C15.0195 9.912 14.9235 9.936 14.8395 9.948C14.7315 9.972 13.0515 11.088 9.77547 13.296C9.29547 13.62 8.86346 13.788 8.47946 13.776C8.04746 13.764 7.23146 13.536 6.61946 13.332C5.86346 13.092 5.27547 12.96 5.32346 12.54C5.34747 12.324 5.64747 12.108 6.21147 11.88C9.71547 10.356 12.0435 9.348 13.2075 8.868C16.5435 7.476 17.2275 7.236 17.6835 7.236C17.7795 7.236 18.0075 7.26 18.1515 7.38C18.2715 7.476 18.3075 7.608 18.3195 7.704C18.3075 7.776 18.3315 7.992 18.3195 8.16Z" fill="#676B75"/>
</svg>
