<svg width="24" height="24" viewBox="0 0 24 24" fill="none" xmlns="http://www.w3.org/2000/svg">
<path fill-rule="evenodd" clip-rule="evenodd" d="M12 23C18.0751 23 23 18.0751 23 12C23 5.92487 18.0751 1 12 1C5.92487 1 1 5.92487 1 12C1 18.0751 5.92487 23 12 23ZM17.242 8.46375C17.4981 8.05395 17.3735 7.51412 16.9637 7.258C16.554 7.00188 16.0141 7.12646 15.758 7.53625L11.2356 14.7721L7.48536 12.272C7.08327 12.0039 6.54001 12.1125 6.27196 12.5146C6.0039 12.9167 6.11255 13.46 6.51464 13.728L11.0146 16.728L11.7644 17.2279L12.242 16.4637L17.242 8.46375Z" fill="#D4F4C1"/>
</svg>
