<svg width="24" height="24" viewBox="0 0 24 24" fill="none" xmlns="http://www.w3.org/2000/svg">
<path fill-rule="evenodd" clip-rule="evenodd" d="M7.25 6.875C6.4906 6.875 5.87499 7.49062 5.875 8.25003L5.87514 16.25C5.87515 16.7333 6.2669 17.125 6.75014 17.125H17.2504C17.7337 17.125 18.1254 16.7332 18.1254 16.25V10.75C18.1254 10.2668 17.7337 9.875 17.2504 9.875H8.0002C7.51695 9.875 7.1252 9.48325 7.1252 9C7.1252 8.51675 7.51695 8.125 8.0002 8.125H17.2504C18.7002 8.125 19.8754 9.30025 19.8754 10.75V16.25C19.8754 17.6997 18.7002 18.875 17.2504 18.875H6.75014C5.30041 18.875 4.12517 17.6998 4.12514 16.25L4.125 8.25006C4.12497 6.52414 5.52409 5.125 7.25 5.125H17.0002C17.4835 5.125 17.8752 5.51675 17.8752 6C17.8752 6.48325 17.4835 6.875 17.0002 6.875H7.25Z" fill="#161F36"/>
</svg>
