<svg width="67" height="66" viewBox="0 0 67 66" fill="none" xmlns="http://www.w3.org/2000/svg">
<path d="M1.5 33C1.5 15.3269 15.8269 1 33.5 1C51.1731 1 65.5 15.3269 65.5 33C65.5 50.6731 51.1731 65 33.5 65C15.8269 65 1.5 50.6731 1.5 33Z" fill="white"/>
<path d="M33.5 0.5C15.5507 0.5 1 15.0507 1 33C1 50.9493 15.5507 65.5 33.5 65.5C51.4493 65.5 66 50.9493 66 33C66 15.0507 51.4493 0.5 33.5 0.5Z" stroke="black" stroke-opacity="0.16"/>
<path fill-rule="evenodd" clip-rule="evenodd" d="M27.8276 5C31.8645 14.4093 41.2126 20.9999 52.1001 20.9999H57.7001V26.6L31.3002 26.5999C19.3708 26.5999 9.7002 16.9293 9.7002 5H27.8276ZM27.8276 61C31.8645 51.5907 41.2126 45.0001 52.1001 45.0001H57.7001V39.4001H31.3002C19.3708 39.4001 9.7002 49.0707 9.7002 61H27.8276ZM57.7001 29.7999V36.1999C22.698 36.1999 9.7002 37.7999 9.7002 37.7999V28.1999C9.7002 28.1999 23.1074 29.7999 57.7001 29.7999Z" fill="black"/>
</svg>
