<svg width="72" height="26" viewBox="0 0 72 26" fill="none" xmlns="http://www.w3.org/2000/svg">
<g id="Logotype">
<g id="Elytro">
<path d="M0.200195 0.400391H12.9941V3.65195H3.92255V8.3915H11.3397V11.5053H3.92255V16.4377H13.3249V19.6893H0.200195V0.400391Z" fill="black"/>
<path d="M15.5683 0.400391H19.07V19.6893H15.5683V0.400391Z" fill="black"/>
<path d="M20.436 5.55328H24.1583L27.8255 15.8866L31.41 5.55328H35.1324L28.7906 21.7835C27.9083 24.0982 27.2465 25.2004 25.0958 25.2004H21.5665V22.1968H23.6896C24.7649 22.1968 25.0682 21.9488 25.4543 20.9017L25.923 19.7719L20.436 5.55328Z" fill="black"/>
<path d="M37.8875 15.7213V8.55684H35.4887V5.55328H37.8875V1.58528H41.3893V5.55328H44.7256V8.55684H41.3893V15.2253C41.3893 16.2724 41.7753 16.6857 42.8507 16.6857H44.8359V19.6893H41.8305C39.1283 19.6893 37.8875 18.3942 37.8875 15.7213Z" fill="black"/>
<path d="M46.6956 5.55328H49.8389L50.1974 7.67506C50.9418 6.43506 52.0448 5.55328 54.3057 5.55328H54.9675V8.74972H53.5061C51.0521 8.74972 50.1974 10.5133 50.1974 12.6902V19.6893H46.6956V5.55328Z" fill="black"/>
<path d="M63.0382 16.9613C65.3543 16.9613 66.8157 15.1702 66.8157 12.6351C66.8157 10.0724 65.3543 8.28128 63.0382 8.28128C60.7221 8.28128 59.2607 10.0724 59.2607 12.6351C59.2607 15.1702 60.7221 16.9613 63.0382 16.9613ZM63.0382 19.8546C58.6265 19.8546 55.6762 16.9613 55.6762 12.6351C55.6762 8.28128 58.6265 5.38795 63.0382 5.38795C67.4499 5.38795 70.4002 8.28128 70.4002 12.6351C70.4002 16.9613 67.4499 19.8546 63.0382 19.8546Z" fill="black"/>
</g>
</g>
</svg>
